<svg id="Layer_1" enable-background="new 0 0 511.997 511.997" height="512" viewBox="0 0 511.997 511.997" width="512" xmlns="http://www.w3.org/2000/svg"><g><path d="m421.584 447.557c48.81-44.786 79.416-109.097 79.416-180.562 0-135.311-109.691-245.002-245.002-245.002s-245.002 109.691-245.002 245.002c0 75.219 33.909 142.509 87.261 187.452z" fill="#88ce65"/><path d="m401.837 448.971c-16.576-7.275-33.61-13.145-51.585-17.492-10.431 13.15-21.708 23.89-32.395 32.189-17.649 13.705-39.428 21.149-61.86 21.149-10.994 0-21.828-1.799-32.1-5.236-.199.219-.371.406-.506.55-2.629.167-13.256 1.028-25.574 4.632-10.353 3.029-19.083 7.217-25.952 12.387 26.237 9.598 54.569 14.847 84.132 14.847 26.473 0 51.961-4.206 75.841-11.977l-.005-.006z" fill="#49b1f7"/><path d="m224.066 481.595s.516-.513 1.404-1.513c-11.268-3.567-21.894-9.086-31.332-16.414-10.687-8.299-21.964-19.039-32.395-32.189-22.3 5.394-43.165 13.091-63.486 22.967 22.094 18.611 47.528 33.379 75.266 43.299 20.367-14.787 50.543-16.15 50.543-16.15z" fill="#1fa2ea"/><path d="m347.125 430.725c-14.094-14.093-17.666-40.813-18.309-59.507-7.355 8.567-15.074 15.732-22.45 21.46-9.653 7.496-20.827 12.679-32.656 15.283-10.647 6.227-23.47 16.88-28.169 32.253-7.055 23.08-19.777 37.392-22.148 39.917-.569.036-1.531.108-2.785.23 11.236 4.198 23.214 6.408 35.39 6.408 22.431 0 44.211-7.444 61.86-21.149 11.13-8.643 22.903-19.926 33.69-33.829-1.471-.362-2.941-.724-4.423-1.066z" fill="#ffaa7b"/><g><path d="m279.706 406.41c-7.635 2.294-15.618 3.489-23.708 3.489-18.264 0-35.997-6.061-50.367-17.22-7.376-5.728-15.095-12.894-22.45-21.46-.644 18.694-4.216 45.413-18.31 59.507-1.482.342-2.952.703-4.422 1.066 10.787 13.903 22.56 25.186 33.69 33.829 9.047 7.026 19.185 12.393 29.934 15.969.145-.145 14.964-14.97 22.901-40.936 5.451-17.833 21.904-28.974 32.732-34.244z" fill="#fc9460"/></g><path d="m407.866 101.501c-6.953-19.383-27.717-64.694-73.004-76.78-2.412-.644-3.05-3.765-1.087-5.308l6.787-5.333c3.077-2.418 1.895-7.329-1.948-8.07-12.945-2.496-37.532-6.337-64.8-5.987-10.371 4.516-23.215 12.255-29.189 24.394-4.69 9.532-4.351 20.284 1.01 31.956 14.825 32.28-6.487 47.079-7.399 47.692l-.461.307-32.427 114.238h178.565c.451-18.332 3.509-66.853 22.667-101.417 2.665-4.808 3.141-10.519 1.286-15.692z" fill="#2a428c"/><path d="m206.908 218.61 32.159-113.297s23.505-15.655 7.931-49.566c-14.885-32.412 13.711-49 30.875-55.745-44.003-.091-96.329 10.234-118.111 55.023-2.057 4.23-5.935 7.275-10.488 8.454-10.03 2.597-28.07 10.42-39.828 33.866-2.299 4.586-2.692 9.903-1.043 14.761 5.714 16.841 19.636 62.061 21.088 106.504z" fill="#1c2e7a"/><path d="m393.789 211.195c-5.696-5.22-18.43-2.574-23.336.622 1.075 6.693 1.136 13.539.207 20.301l-5.789 42.163c0 3.399-.107 6.733-.304 10.01 14.116 4.258 22.517-8.415 23.698-17.112.508-3.744 1.34-7.434 2.493-11.034 3.756-11.728 17.302-31.871 3.031-44.95z" fill="#ffaa7b"/><path d="m118.208 211.195c5.696-5.22 18.43-2.574 23.336.622-1.075 6.693-1.136 13.539-.207 20.301l5.789 42.163c0 3.399.107 6.733.304 10.01-14.116 4.258-22.517-8.415-23.698-17.112-.508-3.744-1.34-7.434-2.493-11.034-3.756-11.728-17.302-31.871-3.031-44.95z" fill="#fc9460"/><path d="m368.357 198.791c-1.303-3.4-2.945-6.842-5.015-10.089-3.506-5.5-5.048-12.005-4.578-18.491 1.351-18.656.627-55.142-23.864-66.162-20.806-9.362-46.328-3.942-62.604 1.471-10.57 3.515-22.026 3.515-32.596 0-1.469-.489-3.016-.977-4.625-1.454-16.971 14.133-17.388 46.952-16.263 64.351.425 6.582-1 13.166-4.129 18.747-1.803 3.217-3.246 6.621-4.4 9.991-3.743 10.931-4.834 22.787-3.432 34.395l5.209 43.126c0 62 29.115 104.141 53.879 126.003 4.626 4.084 9.647 7.481 14.932 10.181 9.169-2.905 17.815-7.396 25.495-13.36 27.53-21.378 59.895-62.588 59.895-123.218l5.789-42.163c1.542-11.242.372-22.722-3.693-33.328z" fill="#ffc7ab"/><g><path d="m266.361 397.499c-24.217-21.378-52.689-62.588-52.689-123.218l-5.094-42.173c-1.371-11.352-.304-22.945 3.356-33.635 1.129-3.295 2.54-6.625 4.303-9.77 3.06-5.458 4.454-11.896 4.038-18.333-1.16-17.953-.655-52.711 18.79-65.057-16.299-5.341-41.43-10.507-61.971-1.264-24.56 11.051-25.219 47.715-23.852 66.321.473 6.437-1.111 12.875-4.59 18.333-2.005 3.146-3.608 6.475-4.892 9.77-4.161 10.69-5.374 22.284-3.815 33.635l5.79 42.173c0 60.63 32.365 101.839 59.894 123.218 14.37 11.159 32.103 17.22 50.366 17.22 10.011 0 19.859-1.833 29.085-5.316-6.687-2.872-13.007-6.862-18.719-11.904z" fill="#ffaa7b"/></g><path d="m296.215 227.477c0-2.095.392-4.087 1.091-5.898-2.722 1.336-4.92 2.849-6.486 4.126-3.651 2.978-10.001 6.756-13.477 8.752-.658.378-.389 1.381.369 1.381h.343c3.226 0 6.434.503 9.498 1.512 5.314 1.75 10.399 2.621 15.101 2.908-3.863-2.648-6.439-7.38-6.439-12.781z" fill="#edeef2"/><path d="m339.455 230.753c-6.349-5.956-12.452-9.393-18.096-11.133 1.269 2.286 2.003 4.977 2.003 7.857 0 4.708-1.958 8.906-5.019 11.661 4.62-.955 8.228-2.283 10.461-3.3 4.582-2.086 8.047-2.935 10.107-3.279.858-.143 1.178-1.211.544-1.806z" fill="#edeef2"/><path d="m296.454 222.012c-.774 1.769-1.206 3.72-1.206 5.774 0 5.315 2.878 9.956 7.159 12.456 6.174.403 11.696-.204 16.221-1.163 3.325-2.642 5.46-6.717 5.46-11.293 0-2.998-.916-5.782-2.482-8.089-10.342-3.271-19.16-.83-25.152 2.315z" fill="#2a428c"/><circle cx="309.519" cy="228.692" fill="#1c2e7a" r="5.527"/><path d="m351.67 210.284c-.826-5.43-4.116-18.049-16.955-20.967-12.964-2.946-40.3 2.607-51.367 5.109-2.948.666-5.285 2.909-6.076 5.826l-2.28 8.408c-.194.714.464 1.366 1.176 1.166 8.39-2.354 47.027-12.802 58.797-9.027 8.975 2.879 13.585 7.366 15.622 9.955.387.493 1.177.148 1.083-.47z" fill="#3c58a0"/><path d="m215.782 227.477c0-2.095-.392-4.087-1.091-5.898 2.722 1.336 4.92 2.849 6.486 4.126 3.652 2.978 10.001 6.756 13.477 8.752.658.378.389 1.381-.369 1.381h-.343c-3.226 0-6.434.503-9.498 1.512-5.314 1.75-10.399 2.621-15.101 2.908 3.863-2.648 6.439-7.38 6.439-12.781z" fill="#edeef2"/><path d="m172.541 230.753c6.349-5.956 12.452-9.393 18.096-11.133-1.27 2.286-2.003 4.977-2.003 7.857 0 4.708 1.958 8.906 5.019 11.661-4.62-.955-8.228-2.283-10.461-3.3-4.582-2.086-8.047-2.935-10.107-3.279-.858-.143-1.178-1.211-.544-1.806z" fill="#edeef2"/><path d="m215.543 222.012c.774 1.769 1.206 3.72 1.206 5.774 0 5.315-2.878 9.956-7.159 12.456-6.174.403-11.697-.204-16.221-1.163-3.325-2.642-5.459-6.717-5.459-11.293 0-2.998.916-5.782 2.482-8.089 10.341-3.271 19.159-.83 25.151 2.315z" fill="#2a428c"/><path d="m196.951 228.692c0 3.052 2.474 5.527 5.527 5.527 3.052 0 5.527-2.474 5.527-5.527 0-3.052-2.474-5.527-5.527-5.527s-5.527 2.474-5.527 5.527z" fill="#1c2e7a"/><path d="m160.327 210.284c.827-5.43 4.116-18.049 16.955-20.967 12.964-2.946 40.3 2.607 51.367 5.109 2.948.666 5.285 2.909 6.076 5.826l2.28 8.408c.194.714-.464 1.366-1.176 1.166-8.39-2.354-47.027-12.802-58.797-9.027-8.975 2.879-13.585 7.366-15.622 9.955-.388.493-1.178.148-1.083-.47z" fill="#3c58a0"/><path d="m288.384 331.801-12.342-4.867c-1.388-.547-2.921-.61-4.35-.18l-14.223 4.289-14.222-4.289c-1.429-.43-2.962-.367-4.35.18l-12.342 4.867c-3.41 1.344-5.084 5.198-3.74 8.608 1.341 3.4 5.187 5.087 8.608 3.74l10.198-4.021 13.87 4.183c1.344.42 2.745.39 3.957-.001l13.868-4.182 10.198 4.021c3.404 1.339 7.259-.321 8.608-3.74 1.346-3.41-.329-7.263-3.738-8.608z" fill="#ffaa7b"/><path d="m262.129 355.229h-8.518c-3.665 0-6.636 2.971-6.636 6.636s2.971 6.636 6.636 6.636h8.518c3.665 0 6.636-2.971 6.636-6.636s-2.971-6.636-6.636-6.636z" fill="#ffaa7b"/><path d="m376.675 409.911-21.707-28.32s-11.871 1.468-37.863 4.223-31.529 31.061-31.529 31.061c-5.132 17.334-7.303 30.401.081 34.272 6.919 3.627 12.144-2.517 12.144-2.517 2.851-3.397 5.693-7.952 8.351-12.863l28.087-12.96s8.699 22.865 18.926 33.597 17.461.421 17.461.421c23.271-18.483 6.049-46.914 6.049-46.914z" fill="#bec8f7"/><g><path d="m369.648 449.752c-5.695-5.977-10.917-15.716-14.426-23.174-2.678-5.69-9.457-8.136-15.167-5.501l-5.501 2.538c1.646 4.147 9.525 23.255 18.61 32.789 10.227 10.732 17.461.421 17.461.421 1.383-1.098 2.618-2.233 3.728-3.393-1.478-.767-3.052-1.945-4.705-3.68z" fill="#a8b7ef"/></g><path d="m316.035 385.963c-25.061 3.415-30.458 30.912-30.458 30.912-5.132 17.334-7.303 30.401.081 34.272 4.201 2.202 7.775.802 9.937-.637-2.819-5.961-.617-16.941 3.414-30.557 0 0 3.675-18.767 19.073-27.226-.677-2.276-1.379-4.607-2.047-6.764z" fill="#a8b7ef"/><path d="m410.721 391.818c-14.436-12.672-28.016-35.345-43.804-35.726-23.013-.555-77.043 11.805-77.351 24.564-.057 2.36.991 4.587 4.038 6.112l8.536 2.378c13.84 2.269 37.578-1.43 46.68-3.033 2.381-.419 4.799.479 6.32 2.358 3.841 4.745 9.035 12.345 12.958 17.078 10.061 12.141 12.757 28.087 4.882 41.895-1.81 3.174-3.386 6.028-5.066 7.622 0 0-6.074 6.709-10.887 1.658l-14.071-19.523c-.915-2.388-11.9-42.583-32.843-45.155-.855-.101-1.882-.097-1.824-.096-2.87.045-6.066 1.154-7.522 3.555-1.418 2.25-.324 4.457 3.31 26.493 1.607 9.615 3.068 19.609 2.934 25.16-.223 9.252 15.333 36.101 22.633 48.171.899 1.486 1.632 3.057 2.193 4.683 33.716-10.966 64.223-29.036 89.749-52.457 1.405-5.582 2.546-11.143 3.316-16.589.606-4.288.181-8.653-1.196-12.759-2.679-7.983-7.892-21.918-12.985-26.389z" fill="#deeeff"/><path d="m318.366 396.921c.18-.574.443-.976.624-1.237-6.111-4.24-10.757-3.734-10.701-3.733-3.965.062-8.225 2.318-8.14 5.777.124 5.681 7.156 37.215 6.861 49.431-.223 9.252 15.333 36.101 22.633 48.171.899 1.486 1.632 3.057 2.193 4.683 5.115-1.664 10.158-3.484 15.119-5.469-7.556-12.573-22.113-37.998-21.897-46.95.317-13.152-7.688-47.257-6.692-50.673z" fill="#d3dcfb"/><path d="m293.605 386.769 8.536 2.378c12.658 2.076 34.046-.808 46.679-3.032h.004c4.065-.709 6.389 2.419 6.332 2.378 1.78 2.2 4.095 5.345 5.797 7.66.008.012.016.023.025.034 2.468 3.356 4.983 6.786 7.121 9.366 10.16 12.26 12.533 27.948 5.155 41.39l.017-.001c-1.685 2.941-3.549 6.413-5.356 8.127-2.056 2.049-4.776 3.935-7.635 3.476h-.001s14.58 11.178 25.684-3.041c2.226-2.111 4.145-6.266 6.638-10.227 7.727-12.282 6.492-28.189-2.741-39.384l-26.425-32.043c-1.943-2.402-5.032-3.56-8.075-3.025-46.896 8.255-61.227 3.345-61.292 3.343-.001.001-.003.002-.003.002-.017.013-.031.025-.047.036-2.08 1.573-4.39 3.855-4.452 6.451-.037 1.549.406 3.039 1.573 4.312.612.667 1.418 1.276 2.466 1.8z" fill="#d3dcfb"/><path d="m291.32 334.52c-2.452.698-4.181 2.686-4.676 5.017l23.674 83.232 11.292-3.212-23.674-83.232c-1.647-1.722-4.164-2.502-6.616-1.805z" fill="#ffbbe5"/><path d="m291.468 335.04c2.669-.759 5.425.375 6.843 2.602l-4.434-15.59-11.292 3.212 4.434 15.59c.033-2.639 1.78-5.055 4.449-5.814z" fill="#fc90ce"/><path d="m291.009 324.468c1.519-.432 2.717-1.62 3.124-3.146 1.425-5.347 1.163-13.04-.717-19.648-3.066-10.778-8.446-11.687-14.291-10.025-5.845 1.663-9.941 5.267-6.876 16.045 1.88 6.609 5.705 13.289 9.731 17.085 1.149 1.084 2.794 1.463 4.312 1.031z" fill="#deeeff"/><path d="m285.248 315.122s0 0-2.125-8.125c-1.543-5.899 4.687-9.227 8.218-10.608-3.136-5.747-7.525-6.074-12.215-4.74-5.845 1.663-9.941 5.267-6.876 16.045 1.88 6.609 5.705 13.289 9.731 17.085 1.149 1.084 2.794 1.463 4.312 1.031l4.716-1.341c1.519-.432 2.717-1.62 3.124-3.146.216-.809.38-1.686.518-2.59-7.86 1.396-9.403-3.611-9.403-3.611z" fill="#d3dcfb"/><g><path d="m342.956 437.203c-.915-2.388-11.9-42.583-32.843-45.155-.855-.101-1.882-.097-1.824-.096-2.87.045-6.066 1.154-7.522 3.555-1.418 2.25-.324 4.457 3.31 26.493 4.424 26.47 2.141 23.125 3.356 28.586l45.969 1.108z" fill="#deeeff"/></g><path d="m325.48 451.021c-.29-1.305-.446-2.465-.423-3.426.317-13.154-7.688-47.258-6.691-50.674.179-.574.443-.976.624-1.237-5.573-3.867-12.926-5.409-17.282-1.344-2.744 2.652-1.684 3.164 2.286 27.167 4.688 27.657 2.094 23.034 3.438 29.075l.001.003z" fill="#d3dcfb"/><path d="m294.736 285.006c-.92-1.409-2.331-2.377-3.975-2.723l-12.279-2.585c-2.878-.605-5.449.515-6.704 2.924-.041.078-.086.155-.135.23-2.856 4.417-8.155 7.054-14.175 7.054-6.017 0-11.315-2.637-14.171-7.055-.047-.072-.09-.147-.132-.227-1.258-2.412-3.827-3.531-6.708-2.925l-12.28 2.584c-3.396.715-5.578 4.061-4.863 7.457.712 3.392 4.057 5.576 7.46 4.864l6.843-1.44c.938-.195 1.894.093 2.563.753 5.771 5.701 13.529 8.551 21.29 8.551 7.759-.001 15.52-2.85 21.29-8.55.676-.667 1.633-.95 2.563-.754l6.846 1.441c3.394.71 6.742-1.468 7.457-4.864.346-1.644.03-3.325-.89-4.735z" fill="#ffaa7b"/><path d="m139.293 371.218c.895-49.167-77.295-102.472-52.295-160.229 14.074-32.515-14.752-54.485-42.636-67.478-21.202 36.26-33.366 78.449-33.366 123.484 0 64.267 24.768 122.733 65.252 166.43 36.691-8.246 62.541-34.523 63.045-62.207z" fill="#b4d667"/><path d="m459.865 131.087c-18.53 12.409-45.118 37.799-34.696 77.151 15.496 58.509 0 84.066-16.187 100.253-20.675 20.675.501 71.474 67.939 64.54 15.432-32.087 24.079-68.051 24.079-106.036 0-50.281-15.156-97.017-41.135-135.908z" fill="#b4d667"/><path d="m210.406 203.571c-4.459-9.907 4.299-11.971 4.331-11.978-12.59-2.278-28.472-4.318-37.455-2.276-12.839 2.918-16.128 15.537-16.955 20.967-.094.618.696.963 1.083.471 2.037-2.589 6.647-7.076 15.622-9.955 6.323-2.027 20.398.05 33.374 2.771 0 .001 0 .001 0 0z" fill="#2a428c"/></g></svg>